<svg xmlns="http://www.w3.org/2000/svg" width="561.22" height="561.22" viewBox="0 0 420.915 420.915" id="flight"><path fill="#00efd1" d="m222.559 142.227 80.39-85.801 40.492-43.223c17.762-17.644 46.457-17.598 64.164.11 17.707 17.703 17.754 46.398.106 64.164l-43.223 40.488-85.797 80.39-80.96 75.848 8.3 120.844-25.883 25.867-34.507-76.348a139.472 139.472 0 0 0-28.48-41.203l-.18-.18a139.447 139.447 0 0 0-41.641-28.68L0 240.767l25.871-25.88 120.84 8.298zm0 0"></path><path fill="#00acea" d="m364.57 118.047 10.39 204.7-45.589 45.589-50.68-169.98 85.797-80.391zm-61.62-61.621-80.391 85.8-169.98-50.68 45.593-45.593 204.7 10.39zm0 0"></path></svg>